<?xml version="1.0" encoding="utf-8"?>
<!-- Generator: Adobe Illustrator 23.0.1, SVG Export Plug-In . SVG Version: 6.00 Build 0)  -->
<svg version="1.1" id="Layer_1" xmlns="http://www.w3.org/2000/svg" xmlns:xlink="http://www.w3.org/1999/xlink" x="0px" y="0px"
	 viewBox="0 0 95.3 19.1" style="enable-background:new 0 0 95.3 19.1;" xml:space="preserve">
<style type="text/css">
	.st0{enable-background:new    ;}
	.st1{fill:#424242;}
</style>
<g class="st0">
	<path class="st1" d="M8.3,2.7l4.6,13.9h-1.3L10.1,12H4.9l-1.5,4.6H2.1L6.7,2.7H8.3z M9.8,11L8.7,7.4C8.3,6.1,7.9,4.9,7.6,3.7H7.4
		C7.1,4.9,6.7,6.2,6.3,7.4L5.2,11H9.8z"/>
	<path class="st1" d="M26.2,7.1v1.8c1.1-1.3,2.2-2,3.5-2c0.9,0,1.5,0.3,2,0.8c0.4,0.5,0.6,1.1,0.6,1.9v7.1h-1.2V10
		c0-1.4-0.6-2.1-1.8-2.1c-1.1,0-2.1,0.7-3.1,2v6.7h-1.2V7.1H26.2z"/>
	<path class="st1" d="M47.1,3.3V5h-1.7V3.3H47.1z M46.8,7.1v9.5h-1.2V7.1H46.8z"/>
	<path class="st1" d="M61.2,7.1v1.8c1-1.3,2.1-2,3.2-2c0.7,0,1.3,0.2,1.7,0.6c0.4,0.4,0.6,0.8,0.7,1.3c1-1.3,2-2,3.2-2
		c0.8,0,1.5,0.3,2,0.8c0.4,0.5,0.6,1.1,0.6,1.9v7.1h-1.2V10c0-1.4-0.6-2.1-1.7-2.1c-0.5,0-1.1,0.2-1.6,0.6c-0.5,0.3-0.9,0.8-1.2,1.4
		v6.7h-1.2V10c0-1.4-0.6-2.1-1.7-2.1c-0.5,0-1.1,0.2-1.6,0.6c-0.5,0.3-0.9,0.8-1.3,1.4v6.7h-1.2V7.1H61.2z"/>
	<path class="st1" d="M93.4,11.9h-6.9c0,1.3,0.3,2.4,1,3.1c0.5,0.6,1.2,0.9,2.1,0.9c1.4,0,2.3-0.7,2.7-2l1.1,0.4
		c-0.7,1.7-1.9,2.6-3.8,2.6c-1.3,0-2.4-0.5-3.1-1.5c-0.7-0.9-1-2-1-3.5c0-1.6,0.4-2.9,1.3-3.8c0.7-0.8,1.7-1.2,2.8-1.2
		c1.3,0,2.3,0.5,3,1.5c0.7,0.9,1,2,1,3.3V11.9z M92.2,11c-0.1-1.1-0.4-1.9-1-2.5c-0.5-0.5-1.1-0.7-1.8-0.7c-0.9,0-1.5,0.3-2.1,1
		c-0.5,0.6-0.7,1.3-0.8,2.2H92.2z"/>
</g>
<g>
</g>
<g>
</g>
<g>
</g>
<g>
</g>
<g>
</g>
</svg>
