<?xml version="1.0" encoding="utf-8"?>
<!-- Generator: Adobe Illustrator 23.0.1, SVG Export Plug-In . SVG Version: 6.00 Build 0)  -->
<svg version="1.1" id="Layer_1" xmlns="http://www.w3.org/2000/svg" xmlns:xlink="http://www.w3.org/1999/xlink" x="0px" y="0px"
	 viewBox="0 0 64.5 19.1" style="enable-background:new 0 0 64.5 19.1;" xml:space="preserve">
<style type="text/css">
	.st0{enable-background:new    ;}
	.st1{fill:#FFFFFF;}
</style>
<g class="st0">
	<path class="st1" d="M3.6,1.9h1.2v15.8H3.6V1.9z"/>
	<path class="st1" d="M10.7,3.3h1.9c1.2,0,2.2,0.3,3,0.8c0.8,0.5,1.2,1.2,1.2,2c0,1-0.6,1.8-1.7,2.5c1.8,0.6,2.7,1.6,2.7,3.1
		c0,1-0.5,1.8-1.4,2.5c-0.9,0.6-2.1,0.9-3.7,0.9h-1.9V3.3z M12.2,4.8v3.5c0.9,0,1.6-0.2,2-0.5C14.8,7.4,15,7,15,6.4
		c0-0.5-0.2-0.9-0.6-1.2s-1-0.5-1.7-0.5C12.5,4.8,12.4,4.8,12.2,4.8z M12.2,9.7v4h0.1c1.4,0,2.3-0.2,2.8-0.7
		c0.5-0.4,0.8-0.9,0.8-1.4c0-0.6-0.3-1.1-0.9-1.5c-0.6-0.4-1.3-0.5-2.3-0.5H12.2z"/>
	<path class="st1" d="M19.4,9.2c0-1.7,0.6-3.2,1.9-4.4C22.6,3.6,24.2,3,26,3c1.8,0,3.3,0.6,4.6,1.8c1.3,1.2,1.9,2.7,1.9,4.4
		c0,1.8-0.6,3.3-1.9,4.5c-1.3,1.2-2.8,1.8-4.6,1.8c-1.8,0-3.3-0.6-4.6-1.9C20.1,12.5,19.4,11,19.4,9.2z M30.7,9.3
		c0-1.3-0.5-2.4-1.4-3.3c-0.9-0.9-2.1-1.3-3.5-1.3c-1.3,0-2.4,0.5-3.4,1.4c-0.9,0.9-1.4,2-1.4,3.3c0,1.3,0.5,2.4,1.4,3.3
		c1,0.9,2.1,1.3,3.5,1.3c1.3,0,2.4-0.5,3.3-1.4C30.3,11.6,30.7,10.5,30.7,9.3z"/>
	<path class="st1" d="M46,5.2l-1.2,1.2c-1.2-1.2-2.6-1.8-4.2-1.8c-1.4,0-2.5,0.4-3.5,1.3c-0.9,0.9-1.4,2-1.4,3.3
		c0,1.2,0.4,2.2,1.3,3.2c0.9,0.9,2.1,1.4,3.7,1.4c2.4,0,3.8-1,4.4-3.1h-3.2V9.2h5c0,0.8-0.1,1.5-0.2,1.9c-0.1,0.5-0.3,1-0.7,1.6
		c-0.3,0.6-0.8,1.1-1.4,1.6c-0.6,0.5-1.2,0.8-1.8,1c-0.6,0.2-1.4,0.3-2.3,0.3c-2,0-3.7-0.6-4.9-1.9c-1.2-1.3-1.8-2.7-1.8-4.4
		c0-1.7,0.6-3.2,1.9-4.4S38.7,3,40.4,3c1.1,0,2,0.2,2.9,0.5C44.2,3.8,45.1,4.4,46,5.2z"/>
	<path class="st1" d="M48.7,9.2c0-1.7,0.6-3.2,1.9-4.4C51.9,3.6,53.5,3,55.3,3c1.8,0,3.3,0.6,4.6,1.8c1.3,1.2,1.9,2.7,1.9,4.4
		c0,1.8-0.6,3.3-1.9,4.5c-1.3,1.2-2.8,1.8-4.6,1.8c-1.8,0-3.3-0.6-4.6-1.9C49.4,12.5,48.7,11,48.7,9.2z M60,9.3
		C60,8,59.6,6.9,58.6,6c-0.9-0.9-2.1-1.3-3.5-1.3c-1.3,0-2.4,0.5-3.4,1.4c-0.9,0.9-1.4,2-1.4,3.3c0,1.3,0.5,2.4,1.4,3.3
		c1,0.9,2.1,1.3,3.5,1.3c1.3,0,2.4-0.5,3.3-1.4C59.6,11.6,60,10.5,60,9.3z"/>
</g>
<g>
</g>
<g>
</g>
<g>
</g>
<g>
</g>
<g>
</g>
</svg>
