<?xml version="1.0" encoding="utf-8"?>
<!-- Generator: Adobe Illustrator 23.0.1, SVG Export Plug-In . SVG Version: 6.00 Build 0)  -->
<svg version="1.1" id="Layer_1" xmlns="http://www.w3.org/2000/svg" xmlns:xlink="http://www.w3.org/1999/xlink" x="0px" y="0px"
	 viewBox="0 0 40.7 40.7" style="enable-background:new 0 0 40.7 40.7;" xml:space="preserve">
<style type="text/css">
	.st0{enable-background:new    ;}
	.st1{fill:#FFFFFF;}
</style>
<circle cx="20.3" cy="20.3" r="20.3"/>
<g class="st0">
	<path class="st1" d="M13.1,7.8H20c2.9,0,4.9,0.6,5.9,1.8s1.6,2.6,1.6,4.2c0,1-0.2,1.9-0.6,2.6c-0.4,0.7-1,1.4-1.9,2.1
		c1.6,0.6,2.8,1.4,3.5,2.5c0.7,1.1,1,2.3,1,3.6c0,2.2-0.7,3.9-2.2,5.1s-3.6,1.8-6.3,1.8h-8V7.8z M18.2,11.8V17h1.2
		c0.9,0,1.6-0.3,2.2-0.8s0.9-1.2,0.9-2c0-0.7-0.3-1.2-0.9-1.7c-0.6-0.5-1.3-0.7-2.2-0.7H18.2z M18.2,21v6.6h1.8c2.8,0,4.2-1,4.2-3.1
		c0-1.1-0.3-2-1-2.6S21.6,21,20.3,21H18.2z"/>
</g>
<g>
</g>
<g>
</g>
<g>
</g>
<g>
</g>
<g>
</g>
</svg>
