<?xml version="1.0" encoding="utf-8"?>
<!-- Generator: Adobe Illustrator 23.0.1, SVG Export Plug-In . SVG Version: 6.00 Build 0)  -->
<svg version="1.1" id="Layer_1" xmlns="http://www.w3.org/2000/svg" xmlns:xlink="http://www.w3.org/1999/xlink" x="0px" y="0px"
	 viewBox="0 0 233 19.1" style="enable-background:new 0 0 233 19.1;" xml:space="preserve">
<style type="text/css">
	.st0{enable-background:new    ;}
	.st1{fill:#424242;}
</style>
<g class="st0">
	<path class="st1" d="M13.1,2.7L7.9,8.3l5.8,8.3h-1.5L7.1,9.1l-2.4,2.5v5H3.5V2.7h1.2v7.5l6.8-7.5H13.1z"/>
	<path class="st1" d="M29.3,6.8c1.3,0,2.3,0.5,3,1.5c0.7,0.9,1,2,1,3.4c0,1.6-0.4,2.9-1.3,3.8c-0.7,0.8-1.6,1.2-2.8,1.2
		c-1.3,0-2.3-0.5-3-1.5c-0.7-0.9-1-2-1-3.4c0-1.6,0.4-2.9,1.3-3.8C27.3,7.2,28.2,6.8,29.3,6.8z M29.3,7.8c-0.9,0-1.7,0.4-2.2,1.2
		c-0.4,0.7-0.7,1.6-0.7,2.8c0,1.4,0.3,2.4,0.9,3.1c0.5,0.6,1.1,0.9,2,0.9c0.9,0,1.7-0.4,2.2-1.2c0.4-0.7,0.7-1.7,0.7-2.8
		c0-1.3-0.3-2.4-0.9-3.1C30.8,8.1,30.1,7.8,29.3,7.8z"/>
	<path class="st1" d="M50.4,6.8L50.3,8c-0.7,0-1.3,0.3-1.9,0.9c-0.5,0.5-0.9,1.2-1.2,2.1v5.6h-1.2V7.1h1.1v2.5
		c0.4-0.9,0.9-1.7,1.5-2.1C49.2,7,49.8,6.8,50.4,6.8z"/>
	<path class="st1" d="M69.9,11.9H63c0,1.3,0.3,2.4,1,3.1c0.5,0.6,1.2,0.9,2.1,0.9c1.4,0,2.3-0.7,2.7-2l1.1,0.4
		c-0.7,1.7-1.9,2.6-3.8,2.6c-1.3,0-2.4-0.5-3.1-1.5c-0.7-0.9-1-2-1-3.5c0-1.6,0.4-2.9,1.3-3.8c0.7-0.8,1.7-1.2,2.8-1.2
		c1.3,0,2.3,0.5,3,1.5c0.7,0.9,1,2,1,3.3V11.9z M68.7,11c-0.1-1.1-0.4-1.9-1-2.5c-0.5-0.5-1.1-0.7-1.8-0.7c-0.9,0-1.5,0.3-2.1,1
		c-0.5,0.6-0.7,1.3-0.8,2.2H68.7z"/>
	<path class="st1" d="M82.3,9.3c0.6-1.6,1.8-2.4,3.7-2.4c2.2,0,3.4,1.1,3.4,3.2v3.3c0,1.3,0.1,2.3,0.2,3.2h-1.1
		c-0.1-0.4-0.2-0.9-0.2-1.7c-0.8,1.3-2,1.9-3.4,1.9c-1,0-1.8-0.3-2.3-0.9c-0.5-0.5-0.7-1.1-0.7-1.9c0-1.7,1.1-2.8,3.2-3.1
		c0.8-0.1,1.9-0.2,3.2-0.3v-0.5c0-0.9-0.2-1.5-0.6-1.9c-0.3-0.3-0.9-0.5-1.7-0.5c-1.4,0-2.2,0.6-2.6,1.9L82.3,9.3z M88.3,11.5
		c-1,0-1.9,0.1-2.9,0.3c-1.5,0.3-2.3,1-2.3,2.2c0,0.6,0.2,1.1,0.6,1.4c0.4,0.3,0.8,0.5,1.4,0.5c1.3,0,2.3-0.7,3.2-2.1V11.5z"/>
	<path class="st1" d="M103.8,7.1v1.8c1.1-1.3,2.2-2,3.5-2c0.9,0,1.5,0.3,2,0.8c0.4,0.5,0.6,1.1,0.6,1.9v7.1h-1.2V10
		c0-1.4-0.6-2.1-1.8-2.1c-1.1,0-2.1,0.7-3.1,2v6.7h-1.2V7.1H103.8z"/>
	<path class="st1" d="M138.4,2.7h4.1c2.2,0,3.9,0.6,5,1.9c1,1.2,1.5,2.8,1.5,4.9c0,2.4-0.7,4.2-2.1,5.5c-1.2,1-2.7,1.5-4.7,1.5h-3.9
		V2.7z M139.6,3.8v11.7h2.6c1.8,0,3.2-0.5,4.2-1.6c0.9-1,1.3-2.4,1.3-4.3c0-3.9-1.8-5.8-5.4-5.8H139.6z"/>
	<path class="st1" d="M166.1,6.8L166,8c-0.7,0-1.3,0.3-1.9,0.9c-0.5,0.5-0.9,1.2-1.2,2.1v5.6h-1.2V7.1h1.1v2.5
		c0.4-0.9,0.9-1.7,1.5-2.1C164.9,7,165.5,6.8,166.1,6.8z"/>
	<path class="st1" d="M177.9,9.3c0.6-1.6,1.8-2.4,3.7-2.4c2.2,0,3.4,1.1,3.4,3.2v3.3c0,1.3,0.1,2.3,0.2,3.2h-1.1
		c-0.1-0.4-0.2-0.9-0.2-1.7c-0.8,1.3-2,1.9-3.4,1.9c-1,0-1.8-0.3-2.3-0.9c-0.5-0.5-0.7-1.1-0.7-1.9c0-1.7,1.1-2.8,3.2-3.1
		c0.8-0.1,1.9-0.2,3.2-0.3v-0.5c0-0.9-0.2-1.5-0.6-1.9c-0.3-0.3-0.9-0.5-1.7-0.5c-1.4,0-2.2,0.6-2.6,1.9L177.9,9.3z M183.9,11.5
		c-1,0-1.9,0.1-2.9,0.3c-1.5,0.3-2.3,1-2.3,2.2c0,0.6,0.2,1.1,0.6,1.4c0.4,0.3,0.8,0.5,1.4,0.5c1.3,0,2.3-0.7,3.2-2.1V11.5z"/>
	<path class="st1" d="M199.4,7.1v1.8c1-1.3,2.1-2,3.2-2c0.7,0,1.3,0.2,1.7,0.6c0.4,0.4,0.6,0.8,0.7,1.3c1-1.3,2-2,3.2-2
		c0.8,0,1.5,0.3,2,0.8c0.4,0.5,0.6,1.1,0.6,1.9v7.1h-1.2V10c0-1.4-0.6-2.1-1.7-2.1c-0.5,0-1.1,0.2-1.6,0.6c-0.5,0.3-0.9,0.8-1.2,1.4
		v6.7H204V10c0-1.4-0.6-2.1-1.7-2.1c-0.5,0-1.1,0.2-1.6,0.6c-0.5,0.3-0.9,0.8-1.3,1.4v6.7h-1.2V7.1H199.4z"/>
	<path class="st1" d="M223.9,9.3c0.6-1.6,1.8-2.4,3.7-2.4c2.2,0,3.4,1.1,3.4,3.2v3.3c0,1.3,0.1,2.3,0.2,3.2h-1.1
		c-0.1-0.4-0.2-0.9-0.2-1.7c-0.8,1.3-2,1.9-3.4,1.9c-1,0-1.8-0.3-2.3-0.9c-0.5-0.5-0.7-1.1-0.7-1.9c0-1.7,1.1-2.8,3.2-3.1
		c0.8-0.1,1.9-0.2,3.2-0.3v-0.5c0-0.9-0.2-1.5-0.6-1.9c-0.3-0.3-0.9-0.5-1.7-0.5c-1.4,0-2.2,0.6-2.6,1.9L223.9,9.3z M229.8,11.5
		c-1,0-1.9,0.1-2.9,0.3c-1.5,0.3-2.3,1-2.3,2.2c0,0.6,0.2,1.1,0.6,1.4c0.4,0.3,0.8,0.5,1.4,0.5c1.3,0,2.3-0.7,3.2-2.1V11.5z"/>
</g>
<g>
</g>
<g>
</g>
<g>
</g>
<g>
</g>
<g>
</g>
</svg>
