<?xml version="1.0" encoding="utf-8"?>
<!-- Generator: Adobe Illustrator 23.0.1, SVG Export Plug-In . SVG Version: 6.00 Build 0)  -->
<svg version="1.1" id="Layer_1" xmlns="http://www.w3.org/2000/svg" xmlns:xlink="http://www.w3.org/1999/xlink" x="0px" y="0px"
	 viewBox="0 0 108.6 19.1" style="enable-background:new 0 0 108.6 19.1;" xml:space="preserve">
<style type="text/css">
	.st0{enable-background:new    ;}
	.st1{fill:#424242;}
</style>
<g class="st0">
	<path class="st1" d="M4.8,2.7v12.8h7.1v1.1H3.5V2.7H4.8z"/>
	<path class="st1" d="M38.7,2.7l4.6,13.9h-1.3L40.5,12h-5.2l-1.5,4.6h-1.3l4.6-13.9H38.7z M40.2,11L39,7.4c-0.4-1.3-0.8-2.5-1.1-3.7
		h-0.2c-0.3,1.2-0.7,2.5-1.1,3.7L35.5,11H40.2z"/>
	<path class="st1" d="M65.2,2.7h4.4c1.7,0,2.9,0.3,3.6,1c0.6,0.6,0.9,1.3,0.9,2.4c0,0.9-0.3,1.6-1,2.2c-0.5,0.5-1.3,0.8-2.2,0.9v0.1
		c1.2,0.1,2.1,0.6,2.8,1.2c0.5,0.6,0.8,1.3,0.8,2.2c0,1.3-0.5,2.3-1.4,3c-0.8,0.6-1.9,0.9-3.3,0.9h-4.7V2.7z M66.4,3.8v5h2.7
		c1.3,0,2.3-0.3,2.9-0.8c0.6-0.4,0.8-1,0.8-1.8c0-0.9-0.3-1.5-0.9-1.9c-0.5-0.3-1.4-0.5-2.6-0.5H66.4z M66.4,9.8v5.8h3.3
		c2.4,0,3.6-0.9,3.6-2.8c0-0.9-0.4-1.7-1.2-2.2c-0.7-0.5-1.7-0.7-2.9-0.7H66.4z"/>
	<path class="st1" d="M105.3,5.7L104,6.1c-0.5-1.7-1.6-2.5-3.2-2.5c-1,0-1.8,0.3-2.3,0.8c-0.5,0.4-0.7,1-0.7,1.7
		c0,0.8,0.3,1.5,0.8,1.9c0.5,0.4,1.2,0.7,2.3,0.9l0.6,0.2c1.7,0.4,2.9,1,3.5,1.7c0.5,0.5,0.7,1.3,0.7,2.3c0,1.2-0.5,2.2-1.4,2.9
		c-0.8,0.6-1.9,0.9-3.3,0.9c-1.3,0-2.4-0.3-3.3-1c-0.8-0.6-1.3-1.4-1.6-2.4l1.3-0.5c0.5,1.9,1.7,2.8,3.6,2.8c1.2,0,2.1-0.3,2.7-0.9
		c0.5-0.5,0.7-1.1,0.7-1.8c0-0.9-0.3-1.5-0.8-1.9c-0.5-0.4-1.3-0.8-2.6-1.1l-0.5-0.1c-1.6-0.4-2.6-0.9-3.2-1.6
		c-0.5-0.6-0.7-1.3-0.7-2.3c0-1.1,0.4-1.9,1.2-2.6c0.8-0.6,1.8-1,3-1C103,2.5,104.5,3.5,105.3,5.7z"/>
</g>
<g>
</g>
<g>
</g>
<g>
</g>
<g>
</g>
<g>
</g>
</svg>
