<?xml version="1.0" encoding="utf-8"?>
<!-- Generator: Adobe Illustrator 23.0.1, SVG Export Plug-In . SVG Version: 6.00 Build 0)  -->
<svg version="1.1" id="Layer_1" xmlns="http://www.w3.org/2000/svg" xmlns:xlink="http://www.w3.org/1999/xlink" x="0px" y="0px"
	 viewBox="0 0 366.4 85.1" style="enable-background:new 0 0 366.4 85.1;" xml:space="preserve">
<style type="text/css">
	.st0{enable-background:new    ;}
	.st1{fill:#424242;}
	.st2{opacity:0.72;}
	.st3{fill:#5C6BC0;}
	.st4{fill:none;stroke:#000000;stroke-miterlimit:10;}
	.st5{fill:none;}
</style>
<g class="st0">
	<path class="st1" d="M141,23.8v13.9h-1.2V29l0-4.1h-0.2c-0.2,0.6-0.6,2-1.3,4l-3.1,8.8h-1.6l-3.1-8.8c-0.5-1.3-0.9-2.6-1.3-4h-0.2
		c0,0.3,0,0.5,0,0.8l0,3.3v8.7h-1.1V23.8h2.1l3,8.7c0.5,1.4,0.9,2.8,1.4,4.1h0.2c0.7-2.1,1.2-3.5,1.4-4l3-8.7H141z"/>
	<path class="st1" d="M151.2,24.4v1.8h-1.7v-1.8H151.2z M150.9,28.2v9.5h-1.2v-9.5H150.9z"/>
	<path class="st1" d="M165.9,28.2l-3,4.6l3.3,4.9h-1.3l-2.1-3.3c-0.1-0.1-0.2-0.3-0.3-0.4c-0.1-0.2-0.2-0.3-0.3-0.4
		c-0.1,0.2-0.3,0.5-0.5,0.8l-2.1,3.3h-1.3l3.2-4.9l-3.1-4.6h1.3l1.9,3c0.2,0.3,0.4,0.6,0.6,0.9l0.5-0.9l1.8-2.9H165.9z"/>
	<path class="st1" d="M185.2,23.8v12.8h7.1v1.1h-8.3V23.8H185.2z"/>
	<path class="st1" d="M199.5,30.4c0.6-1.6,1.8-2.4,3.7-2.4c2.2,0,3.4,1.1,3.4,3.2v3.3c0,1.3,0.1,2.3,0.2,3.2h-1.1
		c-0.1-0.4-0.2-0.9-0.2-1.7c-0.8,1.3-2,1.9-3.4,1.9c-1,0-1.8-0.3-2.3-0.9c-0.5-0.5-0.7-1.1-0.7-1.9c0-1.7,1.1-2.8,3.2-3.1
		c0.8-0.1,1.9-0.2,3.2-0.3v-0.5c0-0.9-0.2-1.5-0.6-1.9c-0.3-0.3-0.9-0.5-1.7-0.5c-1.4,0-2.2,0.6-2.6,1.9L199.5,30.4z M205.5,32.6
		c-1,0-1.9,0.1-2.9,0.3c-1.5,0.3-2.3,1-2.3,2.2c0,0.6,0.2,1.1,0.6,1.4c0.4,0.3,0.8,0.5,1.4,0.5c1.3,0,2.3-0.7,3.2-2.1V32.6z"/>
	<path class="st1" d="M216.3,23.6v6.1c0.8-1.1,1.7-1.7,2.9-1.7c1.2,0,2.1,0.5,2.8,1.5c0.6,0.9,0.9,2,0.9,3.5c0,1.6-0.4,2.9-1.3,3.9
		c-0.7,0.8-1.6,1.2-2.6,1.2c-1.2,0-2.2-0.6-2.9-1.8l-0.2,1.5h-0.9V23.6H216.3z M216.3,30.9v4.2c0.7,1.2,1.6,1.8,2.6,1.8
		c0.9,0,1.6-0.4,2.1-1.2c0.5-0.7,0.7-1.7,0.7-2.8c0-1.3-0.3-2.3-0.9-3.1c-0.5-0.6-1.1-0.9-1.8-0.9C217.9,29,217,29.6,216.3,30.9z"/>
	<path class="st1" d="M237.2,30.2l-1.1,0.4c-0.4-1.1-1.1-1.7-2.3-1.7c-0.7,0-1.3,0.2-1.7,0.5c-0.3,0.3-0.5,0.6-0.5,1
		c0,0.5,0.2,0.9,0.5,1.2c0.3,0.2,0.8,0.4,1.6,0.6l0.8,0.2c1.2,0.3,2,0.6,2.4,1.1c0.4,0.4,0.6,1,0.6,1.7c0,0.9-0.3,1.6-1,2.1
		c-0.6,0.5-1.5,0.7-2.6,0.7c-1.9,0-3.2-0.8-3.7-2.3l1.1-0.4c0.4,1.2,1.3,1.8,2.6,1.8c0.9,0,1.5-0.2,1.9-0.6c0.3-0.3,0.5-0.7,0.5-1.2
		c0-0.6-0.2-1-0.5-1.3c-0.3-0.2-0.9-0.5-1.8-0.6l-0.8-0.2c-1.1-0.3-1.9-0.6-2.3-1.1c-0.3-0.4-0.5-0.9-0.5-1.6c0-0.8,0.3-1.4,0.9-1.9
		c0.6-0.4,1.4-0.7,2.4-0.7C235.5,28,236.6,28.7,237.2,30.2z"/>
</g>
<g class="st2">
	<g>
		<g>
			<g>
				<g>
					<path class="st3" d="M-6.2,48.8c-0.7,0.3-0.3,0.5-0.3,0.6C-5.4,48.9-6.2,48.7-6.2,48.8z"/>
					<polygon class="st3" points="4.2,43.3 4,43.5 5.5,42.5 					"/>
					<path class="st3" d="M14.3,39.1c-1.2-0.3-3.6,1.6-5.5,2.1l-0.4,0l-0.6,0.9C10,41.1,12.7,39.6,14.3,39.1z"/>
					<path class="st3" d="M20.3,38.5c-0.4-0.1,1.1-0.7-1.3,0.4c0.1,0,0.2,0,0.3,0C19.4,38.8,19.7,38.7,20.3,38.5z"/>
					<path class="st3" d="M19.2,38.9C18.2,39.3,20,38.8,19.2,38.9L19.2,38.9z"/>
					<path class="st3" d="M24.1,36.9l-1.3,0.8c0.3,0,1.6-0.4,1.2-0.1C25.4,36.8,25,36.8,24.1,36.9z"/>
					<path class="st3" d="M25.3,35.9l-0.7,0.4C24.7,36.3,24.9,36.2,25.3,35.9z"/>
					<path class="st3" d="M23.1,37l1.5-0.8c-0.2,0-0.3-0.2-0.7,0.3C23.9,36.3,23.7,36.6,23.1,37z"/>
					<path class="st3" d="M22.2,37.3c-0.8,0.2-1.9,0.4-0.6-0.3C18.9,38.1,19.5,38.4,22.2,37.3z"/>
					<path class="st3" d="M14.5,38.3l-1.1,0.2l-0.8,0.6C13,38.8,14.7,38.4,14.5,38.3z"/>
					<path class="st3" d="M33.1,34c0-0.2-0.6-0.2-0.8-0.4l-1,0.5C31.9,34.1,32.9,33.8,33.1,34z"/>
					<path class="st3" d="M32.3,33.7l1.5-0.8C32.4,33.3,32.2,33.5,32.3,33.7z"/>
					<polygon class="st3" points="25.2,35 22.9,36.5 25.7,34.8 					"/>
					<polygon class="st3" points="39.1,31.9 38.3,32.6 39.8,31.5 					"/>
					<path class="st3" d="M43.1,30.6c-0.6,0.5,1.1,0.2,0.4,0.6c1.1-0.4,1.9-1,2.7-1.4C45.4,30.1,44.4,30.4,43.1,30.6z"/>
					<path class="st3" d="M47.5,28.9c-0.4,0.2-0.8,0.5-1.3,0.8C46.7,29.5,47.1,29.2,47.5,28.9z"/>
					<path class="st3" d="M36.5,32c0.2,0.1,0.5,0.2,1.4,0l-0.8-0.2C36.9,31.8,36.7,31.9,36.5,32z"/>
					<path class="st3" d="M37.1,31.8L37.1,31.8c0.7-0.2,1.2-0.4,1.4-0.4C38.3,31.4,37.9,31.5,37.1,31.8z"/>
					<path class="st3" d="M36.3,32c0.1,0,0.1,0,0.2-0.1C36.4,32,36.4,32,36.3,32z"/>
					<path class="st3" d="M29.5,33.9c0.8-0.6,2.7-1.5,0.7-1.2C29.6,33.3,30.8,33.1,29.5,33.9z"/>
					<path class="st3" d="M35.4,31.8l-1.7,0.5c0.1,0.1,0.4,0.1,0,0.4L35.4,31.8z"/>
					<polygon class="st3" points="36.2,31.4 35.4,31.8 36,31.6 					"/>
					<path class="st3" d="M44.5,29.5c0.7-0.4,1.5-0.7,2.3-1c-1,0.2-2,0.5-2.9,0.8C43.8,29.5,43.5,29.8,44.5,29.5z"/>
					<path class="st3" d="M40.9,30.6c0.1,0,0.1,0,0.2-0.1C40.9,30.5,40.9,30.5,40.9,30.6z"/>
					<path class="st3" d="M55.8,25.7c-0.1,0-0.1,0-0.2,0c0,0,0,0,0,0.1L55.8,25.7z"/>
					<path class="st3" d="M43.7,29.3c-0.8,0.2-1.2,0.4-1.5,0.7c0.5-0.2,1.1-0.4,1.7-0.6C44,29.2,44,29.2,43.7,29.3z"/>
					<path class="st3" d="M49.9,28c-0.4,0-0.9,0.1-1.3,0.2C49,28.1,49.8,28.1,49.9,28z"/>
					<path class="st3" d="M41.3,30.5C41.3,30.5,41.3,30.5,41.3,30.5C41.5,30.6,41.5,30.5,41.3,30.5z"/>
					<path class="st3" d="M41.3,30.5c0.3-0.2,0.6-0.4,0.9-0.6c-0.4,0.2-0.8,0.4-1.2,0.5C41.2,30.5,41.3,30.5,41.3,30.5z"/>
					<path class="st3" d="M57.7,22.3c0,0.4-1.8,1.3-3.6,1.5c-1.6,0.8-0.1,1.7,1.5,2c0-0.2-0.1-0.3,1.6-1.1c-0.7,0-3.9,0.7-2.6-0.1
						c2.2-0.9,1.9-0.4,3-0.5c-1.1-0.2,2.6-1.5,1.9-2.1c-0.6,0.3-1.3,0.5-1.9,0.8C57.6,22.6,58.3,22.2,57.7,22.3z"/>
					<path class="st3" d="M52.4,26.6l-0.7,0.3c0.8-0.2,1.4-0.2,2.5-0.2c1.1-0.5,1.3-0.8,1.3-0.9l-3.4,1L52.4,26.6z"/>
					<path class="st3" d="M48.6,27.8c0.4-0.6,2-1.3,0.9-1.4c-2,0.6-1.3,0.8-2.5,1.3C50.3,26.6,46.2,28.3,48.6,27.8
						c-0.7,0.2-1.2,0.5-1.8,0.6c0.6-0.1,1.2-0.3,1.7-0.4c0,0-0.1,0-0.1,0l0,0v0c-0.2,0-0.2,0-0.1,0c0,0,0.1,0,0.1,0
						C48.5,28,48.6,27.9,48.6,27.8c1-0.2,0.2,0.1-0.1,0.2c0,0,0,0,0,0.1h0l3.2-1.2C51,27,50.2,27.3,48.6,27.8z"/>
					<path class="st3" d="M31.6,31.3c0.1,0,0.1,0,0.1,0.1C32,31.2,32,31.1,31.6,31.3z"/>
					<path class="st3" d="M33,31c-0.2,0.1-0.4,0.4-1.1,0.6c-0.7,0.1-0.1-0.2-0.2-0.3c-0.4,0.3-1.5,0.9,0,0.6l0.2-0.1
						c1.4-0.3,3.2-0.4,3-0.3C34.5,31.2,34,31.1,33,31z"/>
					<path class="st3" d="M40.9,29.3l2.7-1.1L42,28.3l0.1,0.2C40.6,28.9,41,29,40.9,29.3z"/>
					<polygon class="st3" points="56.2,25.9 55.9,26.4 57.3,25.3 					"/>
					<polygon class="st3" points="59.7,24.7 59.7,25.1 60.5,24.6 					"/>
					<path class="st3" d="M261.7,27c0.2,0.2,0.4,0.5,0.6,0.8C262.1,27.4,261.9,27.1,261.7,27z"/>
					<path class="st3" d="M257.6,21.8l-0.3,0C257.6,22,257.8,22,257.6,21.8z"/>
					<path class="st3" d="M148.8,7.2c1.3,0.2,2.7,0.7,2.5,0.2L150.9,7C150,7.2,149.4,7.2,148.8,7.2z"/>
					<path class="st3" d="M211,3.3c-0.1-0.1-0.2-0.1-0.3-0.2c-0.3,0.1-0.6,0.2-0.9,0.3C210.2,3.4,210.6,3.4,211,3.3z"/>
					<path class="st3" d="M212.1,1.7l1.6,0.5C213.4,2.1,212.9,1.9,212.1,1.7z"/>
					<path class="st3" d="M249.2,56.5l-0.8,0.8C249.9,56.8,249.1,56.8,249.2,56.5z"/>
					<path class="st3" d="M96.4,15.4c1.1,0,1.9-0.1,2.6-0.3C97.8,15.1,96.7,14.9,96.4,15.4z"/>
					<path class="st3" d="M256.6,27.7c0.3,0.3,0.5,0.4,0.6,0.4C256.8,27.7,256.6,27.5,256.6,27.7z"/>
					<path class="st3" d="M102,14.5c-0.2,0-0.4,0-0.6,0c-0.7,0.2-1.5,0.4-2.4,0.6C100,15.1,101.1,15,102,14.5z"/>
					<path class="st3" d="M128.1,61c-0.1,0-0.2-0.1-0.3-0.1C127.8,60.9,127.9,61,128.1,61z"/>
					<path class="st3" d="M94.9,48.7c0.3,0.1,0.9,0.3,1.4,0.4C96,49,95.6,48.9,94.9,48.7z"/>
					<path class="st3" d="M74.1,21C73.4,21.2,74,21.1,74.1,21L74.1,21z"/>
					<path class="st3" d="M70,20.3c0.1-0.1,0.3-0.2,0.3-0.3C70.2,20.1,70.1,20.2,70,20.3z"/>
					<path class="st3" d="M109.2,10.3C109.3,10.3,109.3,10.3,109.2,10.3C109.1,10.3,109.1,10.3,109.2,10.3z"/>
					<path class="st3" d="M72.9,21.1c0.3,0,0.6-0.1,1-0.1C73.8,21,73.4,21,72.9,21.1z"/>
					<path class="st3" d="M73.1,21.2c-0.3,0-0.5,0.1-0.7,0.1C72.4,21.5,72.5,21.5,73.1,21.2z"/>
					<path class="st3" d="M75.2,20.7c-0.4,0.1-0.8,0.2-1.2,0.3c0.2,0,0.2,0,0.2,0C74.3,20.9,74.6,20.8,75.2,20.7z"/>
					<path class="st3" d="M193,62.9c-0.1,0-0.1,0-0.2,0C192,63.1,192.4,63.1,193,62.9z"/>
					<path class="st3" d="M168.9,1C168.9,1,168.8,1,168.9,1C168.8,1,168.9,1,168.9,1L168.9,1z"/>
					<path class="st3" d="M171.7,0.4c-1.2,0.6-1.9,0.6-2.8,0.5l1,1.2L171.7,0.4z"/>
					<path class="st3" d="M264.3,43c0.4-0.7,0.7-1.5,1-2.2c0.1,1.5-0.3,2.8-0.5,3.4c-0.2,0.6-0.1,0.6,0.6-0.4
						c-0.6-0.4,0.2-2.7,0.3-5.1c0.1-2.4-0.4-4.6-1.1-4.6c0-0.5,0-1-0.1-1.5c0.1,0.4,0.2,0.5,0.3,0.9c0-1.5-0.5-2-1-2.5
						c-0.5-0.5-1.1-1-1.9-2.7c-0.5-1.2-0.9-2-0.3-1.3c-0.6-0.7-1.2-1.4-1.9-2.1c-0.5-0.6-0.2-0.6,0.3,0c-0.9-1.1-1.9-2.1-2.9-3l0,0
						c-0.6-0.3-1.8-0.9-2.3-1.2c-0.6-0.8,0.5,0.2,0.4-0.1c-0.6-0.4-1.3-0.8-1.9-1.2c-0.5-0.8,1.2,0,2.3,1.1
						c-0.4-1.2-0.8-1.5-1.5-1.8c-0.7-0.4-1.7-0.8-3.3-2.5c0.6,0.4,1.2,0.7,1.8,1.1c-0.6-1.4-2.2-2.2-3.9-3.9
						c0.4,0.5,3.3,3.7,1.1,2.6c-0.5-0.5-1.2-1-2.5-1.5c0.3-0.4-0.9-1-2.3-1.8l0.4-0.5c-1.6-0.7-1.6-0.3-2.6-0.6
						c-1.6-1-1.8-1.6-2-2.2c-2.7-1.5,1.5,1.7-1.8,0.1c-2.2-1.3-3.9-1.8-6.9-2.6c-1.6-0.8,0.4-0.3-0.1-0.7l-1.6-0.1
						c-0.4-0.2-0.2-0.3-0.1-0.3c-1.3-0.3-0.3,0.6-2.3,0c-0.7,0.5-3.7-2.3-6.5-2.2c-0.6-0.3,0.4-0.3,0.3-0.6
						c-1.8-0.2-2.5-0.3-3.2-0.3c-0.7,0-1.3,0-2.8,0c-0.8-0.3-1.5-0.6-2.3-0.8c1.7,0.8-0.7,1-2.7,1.1c0.6,0.3,1.1,0.6,1.4,0.8
						C211.4,4,210.4,4,209.3,4c-0.4-0.2,0-0.3,0.5-0.5c-0.2,0-0.4,0-0.6,0.1c-1.1-0.4-0.5-0.7,0.4-0.9c0.4,0.2,0.7,0.4,1.1,0.5
						c0.8-0.3,1.6-0.6,1.5-1c-0.2,0-0.6,0-1.1,0c0.2-0.1,0.4-0.2,0.3-0.2c-0.1-0.1-0.5,0-1,0.1l-0.6-0.8l-0.2,0.3
						c-1.4-0.3-2.8-0.6-4.1-0.9c-3.1,0.5-5.7,1.3-10.4,1.5c1.2-0.5,0.3-0.8,0.4-1.5c1.3,0.7,3.7-0.2,6.2,0.1c-1.3-0.2-1-0.4-0.6-0.5
						c-1.5,0.1-3,0.3-4.4,0.4c0.1-0.5-0.9-0.4-2.1-0.6c0.9,1-3.3,0.6-5.1,0.9c-0.1-0.3,0.3-0.7,2.5-0.6c-2.4-0.8-3.1,1.2-5.5,0.6
						c0.5,0,0.8,0,1-0.2c-1.2,0.3-4.3,0.2-3.6-0.2l0.5,0c-3.5,0-10.7,0.4-11.2,1.4c0-0.1,0.4-1,0.6-1.2L167.7,4
						c0.5-0.8-1.7-2.4,1.1-3c-0.8,0-1.9-0.1-3.6,0.3c0.6,0.1,1.5,1,0.7,1.1c-2.2-0.7-1.5-0.4-4.2-0.8c0.9,0.1,0,1.3-1.3,1.4
						c0.2-0.2-0.2-1.1,0.3-1.3L157.4,3c0.8-0.3,0.1-1-0.7-1.2c0.4,0.2-2.9,0.2-3.8,0.4l1.4,0.1c-3.8,0.2-3.6,2-7.3,2.3
						c0.4-0.3,1-1.5-1-1.5c-0.8,0.7-3.6,3.2-6.8,4L138.6,7l-2.5,0.7c0.7-0.5,2.1-1.4,3.7-2.3c1.5-0.8,3.2-1.7,4.4-2.1
						c-1.4-0.1-0.4-0.3-2.6-0.1c-0.8-0.2,1.1-0.6,1.7-0.7c-1.6,0.1-3.3,0.2-5,0.4c0.3,0.6-3.7,1.2-3.4,1.7l5.3-1.4
						c0.3,0.6-2.9,2.3-6.3,2.7c-0.9-0.2,0.5-1.3,0.4-1.5c-0.4,0.3-3.3,0.9-3.6,0.8l1.4-0.5c-2,0-3.1,1.3-5.5,1
						c-0.8,0.1-2.5-0.5-2.6-0.1c1.4,0.5,2,2.9,1.3,3.6C125,9.1,121,9,120,8.8c-1.4-0.4,1.8-1.7,0.5-2.1c0,0.2-0.7,0.5-1,0.7
						c-0.9,0,0.3-0.6-1.6-0.3c-0.2,0.7-3.7,0.6-0.8,0.7c-1.8,0.5-1.9,0.2-4,0.6c0.7,0.3-1.6,1.8-3.4,2.3c0.1-0.2-0.4-0.3-0.6-0.4
						c-3.7,0.6-5.7,0.7-9.1,1.4c-0.3-0.1-2,0-1.4-0.4c-0.5,0.2-0.9,0.5-1.9,0.8c-2.1-0.2,2.3-0.6,0.6-1c-0.1,0.4-2.6,1.1-4,1.6
						c0.6,0.5,3.5-0.6,4.9-1.1c0.2,0.8-2.2,2.2-5.7,3.3c-2.7,0.8-1.3-0.3-1.8,0c-5.3,1.1-4.1,2.5-8.6,2.9c-1.8-0.1-0.3-1-0.8-1.3
						c2.2-0.7,3.6-0.5,5.1-0.8l-2,0.2c0.7-0.3,2.2-0.8,3-0.9c-0.8-0.1-3,0.4-5.6,1c-2.5,0.6-5.4,1.3-7.5,1.6
						c-0.7,0.4-1.9,0.8-1.2,0.9l1.3-0.4c1.3,0.1-2.3,1.2-0.6,1c-1.6,0.7-3.4,1.7-5.9,2.1l-0.6-0.5c0.1,0.2,1.7-0.1,2.3-0.5
						c-0.9,0.5-3.9,0.2-4.8,1.3l1.8-0.1c-1.6,0.8-3.5,2-5.7,2.4c1.1,0.3,0.5-0.2,2.2,0.1c-1.5-0.5,5.4-1.5,3.1-1.8
						c1.8,0.4,2.8-0.4,4.9-0.3c-0.1-0.2-0.8-0.2,1-0.5c0.1-0.1,0.2-0.2,0.4-0.3c0.1,0,0.1,0,0.1,0c0,0-0.1,0-0.1,0
						c0.1,0,0.1-0.1,0,0c-0.4,0-0.8,0-1-0.1c0.8-0.7,3.6-1.4,4.5-1.8c1.1-0.2-0.4,0.3,0.3,0.4l1.4-0.7c0.3,0.4,3,0,0.6,0.9l2.3-0.5
						c1.4-0.1,3.2-0.4,4.3-0.9c1.1-0.2,2.6-1.1,1.7-0.5l3.5-1.1l0.1,0.1c3.5-0.8,7.1-2.3,11.2-2.3c1.2-0.3,2.4-0.8,4.4-1l0.5,0.3
						c1.5-0.4,4.6-0.5,5.2-1c0.9,0.4,2.8,0.1,4.7-0.3c2-0.4,4.1-0.9,5.4-1l0-0.5c1.9-0.3,3.6-0.7,5.9-1.3l-0.2-0.4
						c1.9-0.7,5.2-0.4,8.3-0.9c-0.2,0.2-1,0.3-1.6,0.2c1.9,0.3,3.9-0.2,5.8-0.7c1.9-0.5,3.8-0.9,5.5-0.7c0.8-0.3,1.5-0.3,2.1-0.2
						c-0.1,0-0.1,0-0.2,0c0.1,0,0.2,0,0.4,0c0.4,0,0.8,0.1,1.2,0.1c-0.4-0.1-0.7-0.1-1-0.1c0.7-0.1,1.6-0.3,2.6-0.5l0.5,0.4
						c0.1,0,0.1,0,0.2,0c1,0.1,0.8-0.3,0.2-0.6c0.5-0.1,0.9-0.3,1.3-0.4c0.9,0.7,2.5-0.5,3.7,0.3c0.6-0.5,4.9-0.7,5.4-1.6
						c0,0.1,0.3,0.1-0.2,0.2c1.1,0,2.2,0,3.2-0.3l0.5,0.6l2.3-1c1.5,0.3,2.1,0.5,0.7,1c3.4-1,2.8-0.5,5.7-1.4l-0.1,0.4
						c1.1-0.1,2.7-0.7,3.4-0.4c1.2,0.3,4.1,0.2,7.5,0.1c3.4-0.1,7.2-0.1,10.2,0.3c-1.1-1.2,2.8,0.6,3.1-0.3c0.3,0.3,1.2,0.5,0.2,0.7
						c3.1-0.1,4.6,0.7,6.7,0.1c0.3,0.3-0.7,0.3-0.4,0.5c0.3,0,1-0.2,1.3,0c0.3,0.2-0.5,0.2-1,0.3c3.1,0.3,3.5-0.5,3.8-1.3
						c1.5,0.6,2.3,0.6,3.5,0.3c0.5,0.3,1.4,0.8-0.6,0.5c1.1,0.2,6.5,1.5,6.7,1c0.3,0.2,1.5,0.4,1.8,0.4c2.4,0.7,2.6,0.7,4.9,1.4
						l-0.6-0.3c1.1-0.5,2,0.4,3.9,1l-0.1,0.1c4,2.1,1.9,0.4,5.8,2.7l0-0.5c0.8-0.8,3.3,2.1,5.8,3l-0.7-0.7c1.4,0.3,2.8,3.1,3.9,3.9
						c0.2,0.2-0.5-0.1-0.9-0.3c2.8,2.4,0.7-0.3,3.1,1c0.2,0.6-1,0.4,0.5,1.4c0.6,0.7,5,2,6.5,4.1c-0.2-0.5-0.5-1.1,0.6-0.5
						c0.8,0.6,1.5,1.6,2.3,2.6s1.5,1.9,2.3,2.3c0.1,0.2,0.1,0.3,0,0.4c0.5,0.5,1.2,1.4,1.8,2.3c0.6,0.9,1.1,1.8,1.5,2.1
						c-0.5,0.9,0.3,2.8,0.6,4.8c0.3,1.9,0.1,3.8-0.6,3.6c-0.3,1.3-0.8,2.5-1.6,3.7l-0.1-0.2c-0.8,1-1.3,1.8-1.7,2.3
						c-0.4,0.6-0.6,1-0.9,1.5c-0.6,0.3-0.3-0.1-0.3-0.2c-1.7,1.1-2.7,1.6-3.5,2.2c-0.9,0.6-1.6,1.2-3.1,2.3l-0.5-0.3
						c-0.8,0.7-6,1.5-9.8,3.1c0-0.1,0.1-0.2,0.4-0.3c-1.1,0.5-2.4,0.7-3.6,1c-1.3,0.2-2.6,0.4-3.8,0.5c-2.4,0.3-4.5,0.6-5.2,1.6
						l-3,0.9c4-0.4-0.5,0.9,1.2,0.9c-1.6,0.3-4.2,0-2.2-0.4l0.3,0.1c0.3-0.5-1-0.4-2.3-0.3c-1.3,0.1-2.7,0.2-2.7-0.1
						c-7.9,0.8-15.8,0.5-23.3,0.7l0.9,0.7l-2.6,0c-0.7-0.2-0.9-0.6,0.9-0.6c-1-0.4-3.1,0.4-3.2,0.6c-3.7-0.2,1.4-0.9,0.3-0.9
						l-1.5,0.1l0.4,0.1c-1.2,0.3-1.3,0.6-3.6,0.7c-1.4-0.1-0.7-0.4-1.3-0.5c0-0.1-0.2-0.1-0.9,0l-3.3,0l1.3,0.6
						c-1.5,0.3-3.1,0-1.6,0.6c-2.2-0.9-12.3-0.4-13.7-0.8c-2.1,0.4-4.1,0.3-6.6,0.1c0.6,0.2,1,0.8-1.2,0.6c0.9-1.3-3.9-0.7-5.6-1.8
						c1.5,0.7-6.1-0.2-3.8,0.8c-1.8-0.2-0.1-0.5-1.4-0.9c-2.1,0.1-4.5-0.2-7-0.6c-2.4-0.4-5-0.9-7.6-1.1c-0.1,0.2,0.7,0.6-0.4,0.7
						l-2.6-1.3c-1-0.1-1.1,0.9-2.9,0c0.2,0.2,0.6,0.5-0.1,0.4c-2.5-0.6-5.1-1.2-7.7-1.6c-2.6-0.5-5.2-1-7.8-1.5
						c-5.2-1.1-10.4-2.5-15.1-4.9c1.2,0.8,0.3,0.5-0.7,0.2c0.6,0.3-0.1,0.4-0.1,0.7l-4-2c-1,0.3-4.4-1.6-5.1-1.2l1.4,0.4
						c-2,0.1,1.9,2.5,1.3,3.3c1.1,0,2.3,0.7,3.7,1.4c1.4,0.7,3,1.5,4.8,1.4c0.7,0.4-0.7,0.1-0.4,0.4c1-0.2,2,0.1,3.8,0.8l-0.2,0
						c1.3,0.3,2.5,0.7,3.5,1c1.1,0.3,2,0.6,3,0.9c2,0.6,4,1.3,7,2l-0.4-0.6c1.3,0.3,1.5,0.5,2.1,0.8c1.6-0.4-3.6-0.8-2.1-1.3
						c0.8,0.6,3.1,1.2,5.3,1.6c2.2,0.4,4.4,0.8,4.9,1.5c2,0.4-0.5-0.6,1.5-0.3l0.5,0.4l0.6-0.3c1.3,0.3,1.9,0.7,1.9,1
						c-0.3-0.1-0.9-0.1-1.3-0.1c1.7,0.6,4.9,0.6,5.5,0.8l-1.9-0.5c2.8,0.3,5.9,0.6,8.9,0.9c3.1,0.3,6.1,0.5,8.8,0.4l-0.4-0.3
						c4.1-0.2,3.3,0.5,7.8,0.5l-0.2,0.1c0.9-0.2,2.1-0.2,3.4-0.2c-1.1,0.2,2.1,0.6,0.6,0.8c4.5-0.3,2.2-0.3,5.2-1l0.7,0.4
						c1-0.3,1.1-0.5,3.3-0.5c-1.9,0.3,1.4,0.6-0.6,1c4.7,0.9,7-0.7,9.2,0.5c2.2-1-4.1-0.6-2.9-0.8c-1-0.3,1.8-0.7,3.3-0.7
						c1.5,0,2.6,1.3,6.4,1.3c-0.4,0-0.4,0.1-0.8,0.1c1.4,0.3,2.8-0.4,4.5,0c1-0.6,2.3,0,2.5-0.8l-3.5,0.3c2-0.3,3.8-1.2,7-0.8
						c-0.3,0.2-1.2,0.4-1.9,0.5c0.9,0.2,1.8-0.2,2.8,0c-0.3,0.8-4.2,0.3-6.3,0.9c1,0.3,4-0.7,2.9,0.2c1.5-1.1,3.7,0,6.3-0.9
						l-0.1,0.5c0.4-0.1,1.2-0.3,2-0.3l-1.3,0.7c2.1-0.6,4,0.3,6-0.1c-4.2,0.2-1-0.5-2.7-0.8c5.1-0.8,3,1.1,8.8,0.6
						c-0.8,0.1-3-0.1-1.8-0.4c1.1,0,2.6,0.1,3.3,0.3c3.8-0.4-0.6-0.4,1-0.8c1.4,0.5,1.9-0.4,3.5-0.7l0,0.5c4.4-0.1,1.1-1.1,5-1.2
						l-1.6,0.8c0.7-0.1,1.4-0.3,2-0.4l-0.4,0.6c2.2-0.7,2.9-0.7,5.1-0.8c-0.6-0.3,0.1-0.9,2.1-1.2c1.4,0.1-0.6,0.6,2,0
						c-0.6,0.4-1.2,0.9-2.4,0.7c-0.1,0.2-0.6,0.4-0.7,0.6c1.5,0.1,3.6-0.6,4.6-0.7c-0.4,0.1-0.9,0.1-1.1,0.1c1.3-0.5,2.5-1,3.8-1.5
						c0.7,0,0.2,0.3-0.3,0.5c0.8-0.2,1.3-0.6,2.4-0.9c-0.2,0.4,0,0.8-1.7,1.4c1.2-0.4,2.4-0.9,3.6-1.4c0.3,0.1,2-0.1,1.6,0.2
						c2.2-0.3,4.8-2.3,7.6-3c0.1-0.1,0.4-0.3,0.9-0.6c1.3-0.5,2.5-0.9,3.8-1.5c1.3-0.6,2.5-1.4,3.8-2.6c0.6-0.2,1.3-0.4,2-0.7
						c1-1,0.3-0.7-0.2-0.6c-0.3,0.1-0.5,0.1-0.4-0.1c0.1-0.2,0.4-0.6,1.1-1.4c1-1.3,1.3-1.4,1.5-1.3c0.2,0.1,0.3,0.4,0.7,0
						c0.4-0.8,0.8-1.9,1.2-3.2c0.4-1.3,0.8-2.7,1.3-4.1C264.8,41.3,264.6,42.1,264.3,43z M250,16.1c0.5,0.2,1.7,0.7,1.9,1.2
						C251.1,17.3,250.8,16.8,250,16.1z M206.8,1.9c0.5-0.1,1.1,0,1.8,0.3C208,2.1,207.4,2.1,206.8,1.9z M82.4,18.5
						C82.4,18.5,82.4,18.5,82.4,18.5C83.7,18.3,83.2,18.4,82.4,18.5z M79.7,18.9c-0.2,0.1-0.2,0.2-0.1,0.2c0.1-0.2,0.7-0.3,1.4-0.5
						C80.8,18.6,80.5,18.6,79.7,18.9z M184.5,59.9L185,60C183.8,60.1,184.2,60,184.5,59.9z"/>
					<path class="st3" d="M212,1.9c0.1,0.1,0.2,0.2,0.2,0.3C212.4,2.1,212.5,2,212,1.9z"/>
					<path class="st3" d="M249.3,56.4L249.3,56.4c-0.1,0.1-0.1,0.1-0.1,0.2L249.3,56.4z"/>
					<path class="st3" d="M119.4,6.6c0.6,0,0.9,0,1.1,0.1C120.5,6.6,120.3,6.5,119.4,6.6z"/>
					<path class="st3" d="M66.3,23.3l1.6-0.6c-0.8,0.2-1.1,0.2-1.5,0.3C66.5,23.1,66.8,23.2,66.3,23.3z"/>
					<path class="st3" d="M51.3,24.6c-0.2,0.1-0.5,0.2-0.7,0.3l0.1,0.2C51.7,24.7,52.4,24.4,51.3,24.6z"/>
					<path class="st3" d="M64.4,22.2c-0.2-0.3-1.2,0.1-2.4,0.5c0.1,0,0.1,0,0.2-0.1C62,23.2,63.2,22.7,64.4,22.2z"/>
					<path class="st3" d="M61.7,22.7C61.4,22.8,61,23,60.7,23C60.6,23.3,61.1,23,61.7,22.7z"/>
					<path class="st3" d="M76.5,20c-0.6,0-0.2,0.6-0.6,0.5C75.5,21.2,79.5,19,76.5,20z"/>
					<polygon class="st3" points="63.1,21.2 63.6,21.5 64.2,21 					"/>
					<path class="st3" d="M72.3,19l-1.9,0.3c0.1,0.1-0.2,0.2-0.4,0.3C71.1,19.4,72.4,19.2,72.3,19z"/>
					<path class="st3" d="M70,19.7c-0.6,0.2-1.2,0.3-1.5,0.5C68.8,20.1,69.5,19.8,70,19.7z"/>
					<polygon class="st3" points="65.6,20.3 66.1,20.3 67.4,19.9 					"/>
					<path class="st3" d="M92.3,14.3c0.7-0.2,1.3-0.4,2-0.6c0.2-0.2-0.4-0.2-1.1,0C92.7,14,92,14.2,92.3,14.3z"/>
					<path class="st3" d="M85.8,14.4c0.6,0,0.6,0.1,1,0.2l-0.1-0.6L85.8,14.4z"/>
					<path class="st3" d="M91.8,12.9c0.2-0.2,2.9-1.2,0.3-0.5C91.9,12.5,89.9,13.2,91.8,12.9z"/>
					<polygon class="st3" points="122.9,7.8 122.4,7.9 122.6,8.9 					"/>
					<path class="st3" d="M150.2,1.8c-2.5,0-0.5,0.7-2.8,0.6c-0.6,0.3,1.9,0,1.3,0.3C150.1,2.3,150.9,2.4,150.2,1.8z"/>
					<path class="st3" d="M148.7,2.8c-0.2,0.1-0.5,0.1-0.7,0.2C148.3,2.9,148.5,2.8,148.7,2.8z"/>
					<polygon class="st3" points="89.6,46.3 88.2,45.5 89,46.2 					"/>
					<path class="st3" d="M86.5,45.9l-0.1-0.7l-1.1,0.2C85.6,45.5,86.3,45.7,86.5,45.9z"/>
					<path class="st3" d="M246.9,12.5l-0.2,0.1c0.1,0.3,0.5,0.5,1.1,0.9L246.9,12.5z"/>
					<path class="st3" d="M263.4,28.7l-0.2-0.4c0,0.3-0.1,0.7-0.2,1L263.4,28.7z"/>
					<path class="st3" d="M262,49.4c0.3-0.3,0.6-0.7,0.9-1.2c0.3-0.4,0.5-0.8,0.8-1.2C262.6,48.8,261.2,49.1,262,49.4z"/>
				</g>
			</g>
		</g>
	</g>
</g>
<g class="st2">
	<g>
		<path class="st4" d="M99.5,42.5"/>
	</g>
</g>
<g class="st2">
	<g>
		<g>
			<g>
				<g>
					<g>
						<path class="st5" d="M366.5,35.8c0.4,0,0.3-0.4,0.3-0.5C366.2,35.4,366.5,35.9,366.5,35.8z"/>
					</g>
					<polygon class="st3" points="360,36.7 360.1,36.5 359.1,36.9 					"/>
					<path class="st3" d="M353.9,36.6c0.6,0.7,2.2-0.1,3.3,0.2l0.2,0.2l0.5-0.6C356.5,36.5,354.8,36.8,353.9,36.6z"/>
					<path class="st3" d="M350.6,35.1c0.2,0.3-0.7,0.2,0.8,0.1c-0.1,0-0.1-0.1-0.1-0.1C351.1,35.1,350.9,35.1,350.6,35.1z"/>
					<path class="st3" d="M351.2,35.1C351.9,35.1,350.8,34.9,351.2,35.1L351.2,35.1z"/>
					<path class="st3" d="M348.2,35.2l0.9-0.3c-0.2-0.2-0.9-0.2-0.6-0.3C347.6,34.8,347.7,35,348.2,35.2z"/>
					<path class="st3" d="M347.4,35.8l0.4-0.1C347.8,35.6,347.7,35.6,347.4,35.8z"/>
					<path class="st3" d="M348.8,35.4l-0.9,0.2c0.1,0.1,0.1,0.3,0.4-0.1C348.2,35.8,348.4,35.6,348.8,35.4z"/>
					<path class="st3" d="M349.3,35.5c0.5,0.2,1.1,0.3,0.2,0.5C351.2,36,351,35.4,349.3,35.5z"/>
					<path class="st3" d="M353.5,37.4l0.6,0.2l0.5-0.2C354.5,37.5,353.5,37.1,353.5,37.4z"/>
					<path class="st3" d="M342.9,34.9c0,0.2,0.3,0.4,0.4,0.6l0.6-0.2C343.6,35.2,343,35.1,342.9,34.9z"/>
					<path class="st3" d="M343.3,35.5l-0.9,0.3C343.2,35.8,343.4,35.7,343.3,35.5z"/>
					<polygon class="st3" points="347.3,36.6 348.8,36 347,36.6 					"/>
					<polygon class="st3" points="339.4,34.9 339.9,34.5 338.9,35.1 					"/>
					<path class="st3" d="M337,35c0.4-0.3-0.5-0.5-0.1-0.7c-0.6,0.1-1.2,0.3-1.7,0.5C335.7,34.7,336.3,34.7,337,35z"/>
					<path class="st3" d="M334.3,35.2c0.3-0.1,0.5-0.2,0.8-0.3C334.9,34.9,334.6,35,334.3,35.2z"/>
					<path class="st3" d="M340.8,35.7c-0.1-0.1-0.2-0.3-0.7-0.4l0.4,0.4C340.5,35.7,340.6,35.7,340.8,35.7z"/>
					<path class="st3" d="M340.4,35.7L340.4,35.7c-0.4,0-0.7,0-0.8,0C339.7,35.7,339.9,35.7,340.4,35.7z"/>
					<path class="st3" d="M340.9,35.7C340.8,35.7,340.8,35.7,340.9,35.7C340.8,35.7,340.8,35.7,340.9,35.7z"/>
					<path class="st3" d="M344.8,36.2c-0.5,0.2-1.7,0.5-0.6,0.9C344.6,36.7,344,36.5,344.8,36.2z"/>
					<path class="st3" d="M341.3,36.2l1,0.1c0-0.1-0.2-0.3,0.1-0.4L341.3,36.2z"/>
					<polygon class="st3" points="340.8,36.3 341.3,36.2 340.9,36.2 					"/>
					<path class="st3" d="M336,35.6c-0.4,0.2-0.9,0.2-1.4,0.2c0.6,0.1,1.2,0.1,1.7,0.1C336.4,35.8,336.7,35.5,336,35.6z"/>
					<path class="st3" d="M338.2,35.7c0,0-0.1,0-0.1,0C338.1,35.7,338.2,35.7,338.2,35.7z"/>
					<polygon class="st3" points="329.4,35.9 329.5,35.9 329.5,35.9 					"/>
					<path class="st3" d="M336.4,36c0.4,0.1,0.7,0,0.9-0.2C337,35.9,336.7,35.9,336.4,36C336.3,36,336.3,36,336.4,36z"/>
					<path class="st3" d="M332.9,35.4c0.2,0.1,0.5,0.2,0.8,0.2C333.4,35.5,333,35.3,332.9,35.4z"/>
					<path class="st3" d="M337.9,35.6L337.9,35.6C337.8,35.5,337.9,35.5,337.9,35.6z"/>
					<path class="st3" d="M337.9,35.6c-0.2,0.1-0.4,0.2-0.6,0.3c0.3,0,0.5-0.1,0.7-0.2C338,35.7,338,35.6,337.9,35.6z"/>
					<path class="st3" d="M327.8,38.6c0.1-0.4,1.2-0.8,2.2-0.4c1-0.3,0.3-1.6-0.5-2.3c0,0.2,0,0.3-1,0.6c0.4,0.2,2.2,0.5,1.4,0.8
						c-1.3,0.2-1.1-0.1-1.7-0.3c0.5,0.5-1.6,0.7-1.4,1.5l1.1-0.3C327.9,38.3,327.5,38.5,327.8,38.6z"/>
					<path class="st3" d="M331.3,35.9l0.4-0.1c-0.5-0.1-0.8-0.2-1.4-0.5c-0.7,0.2-0.8,0.3-0.9,0.5l2,0L331.3,35.9z"/>
					<path class="st3" d="M333.6,35.9c-0.3,0.4-1.3,0.6-0.7,1.1c1.2,0,0.8-0.4,1.5-0.6C332.5,36.5,335,36.2,333.6,35.9
						c0.4,0,0.7-0.1,1.1-0.1c-0.4-0.1-0.7-0.1-1-0.2c0,0,0,0,0,0h0v0c0.1,0.1,0.1,0.1,0,0.1c0,0,0,0,0,0
						C333.6,35.8,333.6,35.8,333.6,35.9c-0.6-0.1-0.1-0.1,0.1-0.2c0,0,0,0,0-0.1h0l-1.9,0.3C332.2,36,332.7,35.9,333.6,35.9z"/>
					<path class="st3" d="M343.2,38C343.2,37.9,343.2,37.9,343.2,38C343,37.9,343,38,343.2,38z"/>
					<path class="st3" d="M342.4,37.7c0.1-0.1,0.3-0.2,0.7-0.2c0.4,0.1,0,0.2,0,0.3c0.3-0.1,1-0.3,0.1-0.5l-0.1,0.1
						c-0.8-0.2-1.8-0.7-1.6-0.7C341.7,37.1,341.9,37.3,342.4,37.7z"/>
					<path class="st3" d="M337.9,36.9l-1.6,0.2l0.8,0.4l0-0.2C338,37.3,337.8,37.1,337.9,36.9z"/>
					<polygon class="st3" points="329.2,35.6 329.4,35.2 328.5,35.8 					"/>
					<polygon class="st3" points="327.1,35.7 327.2,35.3 326.6,35.6 					"/>
					<path class="st3" d="M211,51.3l-0.4,0.2C210.8,51.4,210.9,51.4,211,51.3z"/>
					<path class="st3" d="M214.4,50.7l0-0.2C214.3,50.6,214.2,50.7,214.4,50.7z"/>
					<path class="st3" d="M276,38c-0.7-0.3-1.5-0.8-1.4-0.4l0.2,0.4C275.3,37.9,275.7,37.9,276,38z"/>
					<path class="st3" d="M241.4,44.1c0.1,0,0.1,0.1,0.2,0.1c0.1-0.2,0.3-0.3,0.4-0.5C241.9,43.8,241.7,43.9,241.4,44.1z"/>
					<path class="st3" d="M241.2,45.9l-0.9-0.2C240.5,45.8,240.8,45.9,241.2,45.9z"/>
					<path class="st3" d="M193.1,55.6l-0.4,0.6C193.5,56,193.1,55.9,193.1,55.6z"/>
					<path class="st3" d="M305.8,36.4c-0.6-0.2-1.1-0.2-1.5-0.2C305,36.5,305.6,36.8,305.8,36.4z"/>
					<path class="st3" d="M211.5,46.5c-0.3,0.1-0.4,0.2-0.4,0.3C211.4,46.7,211.6,46.6,211.5,46.5z"/>
					<path class="st3" d="M302.6,36.3c0.1,0,0.2,0.1,0.3,0.1c0.4-0.1,0.9-0.2,1.4-0.2C303.8,36.1,303.2,36,302.6,36.3z"/>
					<path class="st3" d="M129.7,76.5c-0.1,0-0.1,0-0.2,0C129.5,76.5,129.6,76.5,129.7,76.5z"/>
					<path class="st3" d="M110.1,81.2c0.2-0.1,0.4-0.3,0.7-0.4C110.7,80.8,110.5,80.9,110.1,81.2z"/>
					<path class="st3" d="M318.7,35.7C319.2,35.7,318.8,35.7,318.7,35.7L318.7,35.7z"/>
					<path class="st3" d="M320.9,37.4c-0.1,0.1-0.2,0.1-0.2,0.2C320.8,37.5,320.8,37.4,320.9,37.4z"/>
					<path class="st3" d="M298.3,39.2C298.3,39.2,298.3,39.2,298.3,39.2C298.4,39.3,298.4,39.3,298.3,39.2z"/>
					<path class="st3" d="M319.4,35.9c-0.2-0.1-0.4-0.1-0.6-0.1C318.9,35.8,319.1,35.8,319.4,35.9z"/>
					<path class="st3" d="M319.3,35.7c0.1,0,0.3,0,0.4,0C319.7,35.7,319.7,35.6,319.3,35.7z"/>
					<path class="st3" d="M318.1,35.7c0.3,0,0.5,0,0.7,0c-0.1,0-0.1-0.1-0.1-0.1C318.6,35.7,318.4,35.7,318.1,35.7z"/>
					<path class="st3" d="M162.7,62.6c0,0-0.1,0-0.1,0C162.3,62.9,162.4,62.8,162.7,62.6z"/>
					<path class="st3" d="M264.9,43.4C265,43.4,265,43.4,264.9,43.4C265,43.4,264.9,43.4,264.9,43.4L264.9,43.4z"/>
					<path class="st3" d="M263.4,43.9c0.6-0.6,1-0.6,1.5-0.5l-0.6-1.2L263.4,43.9z"/>
					<path class="st3" d="M203.1,53l1.2,0.2c-1.2,0.9-2.2,0.9-1,1.2c-0.1-1.4,4.2-1,4-2.4l0.8,0.1c-0.2,0-0.2,0.1-0.4,0.1
						c1.5,0.4,0.8-1.2,2.7-1.3c0.6,0,1.1,0.1,0.7,0.3l1.3-0.6c0.4-0.1,0.4,0.2,0,0.3l2.1-0.5l0,0c0.3-0.3,0.9-0.7,1.2-0.9
						c0.6,0.1-0.3,0.2-0.1,0.3l1.1-0.5c0.5,0.3-0.4,0.8-1.2,0.9c1.3,1.1,0.9-0.5,3.4-0.2l-1.1,0.4c0.9,0.6,1.7,0.2,3,0.5
						c-0.3-0.2-2.7-0.8-1.5-1.3c0.4,0,0.9,0,1.5-0.4c0.1,0.5,0.7,0.2,1.6,0.1l0,0.6c0.9-0.3,0.8-0.7,1.2-1c1-0.1,1.3,0.3,1.6,0.7
						c1.6-0.2-1.3-0.6,0.7-1c1.4,0,2.3-0.4,3.9-1c1,0.1-0.1,0.4,0.3,0.5l0.8-0.6c0.2,0,0.2,0.2,0.1,0.2c0.7-0.3,0-0.6,1.1-1
						c0.2-0.8,2.5,0.7,3.7-0.3c0.4,0.1-0.1,0.4,0,0.6c1.8-0.8,1.6-0.6,3-1.5l1.4,0.2c-1-0.3,0.1-1.1,1.2-1.7
						c-0.4-0.2-0.7-0.3-0.9-0.4l1.7-0.6c0.2,0.1,0.1,0.3-0.2,0.6c0.1-0.1,0.2-0.1,0.3-0.2c0.7,0.2,0.4,0.6,0,1
						c-0.2-0.1-0.5-0.2-0.7-0.3c-0.4,0.4-0.7,0.9-0.6,1.3c0.1-0.1,0.3-0.2,0.5-0.2c-0.1,0.1-0.2,0.2-0.1,0.3
						c0.1,0.1,0.2-0.1,0.5-0.3l0.5,0.7l0.1-0.3l2.4,0.2c1.5-0.9,2.9-2.2,5.4-2.7c-0.6,0.6,0,0.9,0,1.5c-0.8-0.6-2,0.5-3.4,0.6
						c0.7,0,0.6,0.3,0.4,0.4l2.3-0.9c0,0.5,0.6,0.3,1.2,0.5c-0.6-0.9,1.7-0.9,2.7-1.3c0.1,0.3-0.1,0.7-1.3,0.8
						c1.4,0.6,1.6-1.4,2.9-0.9c-0.3,0-0.5,0-0.5,0.2c0.6-0.4,2.4-0.3,2,0l-0.3,0c2-0.1,5.9-0.6,6.1-1.4c0,0.1-0.2,1.1-0.3,1.2
						l3.2-3.2c-0.2,0.8,1.1,2.4-0.5,2.9c0.5,0.1,1,0.1,2-0.2c-0.3-0.1-0.9-1-0.5-1.1c1.3,0.7,0.9,0.4,2.4,0.9
						c-0.5-0.1-0.1-1.3,0.7-1.3c-0.1,0.2,0.2,1.1-0.1,1.3l1.8-1.3c-0.5,0.2,0,1,0.4,1.2c-0.2-0.2,1.6-0.1,2.1-0.3l-0.8-0.2
						c2.1,0,2-1.7,4.1-1.8c-0.2,0.3-0.5,1.5,0.5,1.5c0.4-0.6,2-2.9,3.8-3.5l0.4,0.3l1.4-0.5c-0.8,0.9-3.2,2.9-4.5,3.7
						c0.8,0.2,0.3,0.4,1.4,0.3c0.4,0.3-0.6,0.5-1,0.6h2.8c-0.2-0.7,2-0.8,1.9-1.4l-2.9,0.9c-0.2-0.7,1.6-2,3.6-2
						c0.5,0.2-0.3,1.2-0.2,1.4c0.2-0.3,1.8-0.6,2-0.4l-0.8,0.4c1.1,0.2,1.7-1,3.1-0.4c0.5,0,1.4,0.8,1.5,0.4
						c-0.8-0.7-1.1-3.1-0.6-3.7c0.2,0,2.4,0.6,3,0.9c0.8,0.6-1,1.5-0.4,2c0-0.2,0.4-0.4,0.6-0.5c0.5,0.1-0.2,0.6,0.9,0.4
						c0.1-0.7,2.1-0.1,0.5-0.6c1-0.2,1.1,0.1,2.3,0c-0.4-0.4,1-1.6,2-1.8c0,0.2,0.2,0.4,0.3,0.5c2.1,0,3.2,0.2,5.1,0.2
						c0.2,0.2,1.1,0.3,0.7,0.6c0.3-0.1,0.5-0.4,1.1-0.4c1.2,0.5-1.3,0.1-0.4,0.8c0.1-0.4,1.5-0.6,2.4-0.9c-0.3-0.6-2,0-2.8,0.2
						c0-0.8,1.4-1.8,3.4-2.3c1.6-0.3,0.7,0.5,1,0.4c3,0.1,2.5-1.6,5-1c1,0.5,0.1,1.1,0.3,1.4c-1.3,0.2-2-0.3-2.9-0.2l1.1,0.2
						c-0.4,0.2-1.3,0.3-1.8,0.2c0.8,0.5,5.1-0.1,7.4,0.3c0.4-0.2,1.1-0.4,0.8-0.6l-0.7,0.1c-0.7-0.4,1.4-0.6,0.4-0.8
						c1-0.3,2.1-0.8,3.5-0.6l0.3,0.6c0-0.2-0.9-0.3-1.3-0.2c0.6-0.3,2.1,0.8,2.8,0l-1-0.4c1-0.3,2.2-1,3.4-0.8
						c-0.6-0.6-0.3,0.1-1.2-0.6c0.8,0.9-3.1,0-1.9,0.9c-0.9-0.8-1.6-0.3-2.8-1c0,0.2,0.4,0.4-0.6,0.3c0,0.1-0.1,0.1-0.2,0.2
						c0,0,0,0-0.1,0l0.1,0c0,0,0,0,0,0c0.3,0.1,0.5,0.2,0.5,0.3c-0.5,0.5-2.1,0.5-2.7,0.8c-0.6-0.1,0.3-0.2-0.1-0.4l-0.8,0.4
						c-0.1-0.4-1.6-0.7-0.2-1l-1.3,0c-0.8-0.2-1.8-0.3-2.5-0.1c-0.6-0.1-1.5,0.5-1,0.2l-2,0.3l0-0.1c-2,0-4.1,0.9-6.4,0.2
						c-0.7,0.1-1.4,0.3-2.5,0.2l-0.2-0.4c-0.9,0.2-2.6-0.3-3,0.2c-1-1-4.2,0-5.8-0.1l0,0.5c-1,0-2.1,0.2-3.4,0.5l0.1,0.4
						c-1.1,0.4-2.9-0.1-4.7,0c0.1-0.2,0.6-0.2,0.9-0.1c-2.2-0.9-4.4,1-6.4,0.4c-0.5,0.2-0.8,0.2-1.2,0.1c0,0,0.1,0,0.1,0
						c0,0-0.1,0-0.2,0c-0.2-0.1-0.4-0.1-0.7-0.2c0.2,0.1,0.4,0.2,0.6,0.2c-0.4,0-0.9,0.1-1.5,0.3l-0.3-0.5c0,0-0.1,0-0.1,0
						c-0.5-0.1-0.4,0.3-0.1,0.6c-0.3,0.1-0.5,0.2-0.7,0.3c-0.5-0.7-1.4,0.4-2.1-0.4c-0.3,0.4-2.7,0.5-3,1.4c0-0.1-0.2-0.2,0.1-0.2
						c-0.6-0.1-1.2-0.1-1.8,0.2l-0.3-0.6l-1.3,0.9c-0.9-0.3-1.2-0.5-0.4-1c-1.9,0.9-1.6,0.4-3.1,1.3l0-0.4c-0.6,0.1-1.5,0.7-1.9,0.4
						c-1.4-0.6-6.6,0.6-10,0.3c0.8,1.1-1.6-0.3-1.7,0.6c-0.2-0.3-0.7-0.3-0.2-0.7c-1.7,0.5-2.7-0.1-3.8,0.8
						c-0.2-0.3,0.3-0.4,0.1-0.6c-0.1,0.1-0.5,0.3-0.7,0.2s0.2-0.3,0.5-0.4c-1.8,0.3-1.8,1.1-1.9,1.9c-0.9-0.3-1.4-0.2-2,0.4
						c-0.4-0.2-0.9-0.4,0.2-0.7c-0.6,0-3.8,0.2-3.8,0.8c-0.2-0.1-0.9,0.1-1,0.2c-1.4,0.2-1.5,0.1-2.9,0.4l0.4,0.1
						c-0.4,0.8-1.1,0.3-2.2,0.6l0-0.1c-2.6-0.2-1,0.4-3.6,0.2l0.2,0.4c-0.1,1.1-2.3-0.3-3.7,0.4l0.6,0.2c-0.7,0.5-2.4-1-3.2-1
						c-0.2-0.1,0.3-0.2,0.5-0.3c-2.2-0.2-0.2,0.7-1.7,1.1c-0.3-0.3,0.2-0.9-0.8-0.8c-0.6-0.2-2.8,1.6-4.3,1.2c0.4,0.2,0.7,0.4,0,0.7
						c-1.1,0.3-3.1-0.4-4,0.6c-0.1,0-0.2-0.1-0.2-0.2c-0.8,0.4-2.6,0.9-3,1.4c-1.1-1.5-5,1.9-5.3,0.4l-2.5,0.6l0-0.2
						c-1.6,0.2-2.1,0.7-2.6,1.2c-0.4,0-0.2-0.2-0.1-0.3c-2.4,0.3-2.7,0.4-4.5,1.6l-0.3-0.4c-0.5,0.4-3.6,0-5.8,1.2
						c0-0.1,0-0.2,0.2-0.3c-2.5,1.2-6.6,0.3-7.1,2.3l-1.6,0.9c2.2-0.5-0.1,0.8,0.9,0.9c-0.8,0.3-2.4,0.1-1.3-0.3l0.2,0
						c0.1-1-2.8,0.4-2.9-0.2c-2.2,0.6-4.3,1.2-6.5,1.7s-4.2,1-6.3,1.7l0.7,0.6l-1.4,0.4c-0.4,0-0.7-0.4,0.3-0.7
						c-0.6-0.2-1.6,0.9-1.6,1c-2.1,0.3,0.5-1.1-0.1-0.9l-0.8,0.3l0.2,0c-0.6,0.5-0.5,0.8-1.7,1.2c-0.8,0.1-0.5-0.3-0.8-0.2
						c0-0.1-0.1,0-0.5,0.1l-1.8,0.6l0.9,0.3c-0.7,0.5-1.7,0.6-0.6,0.9c-1.5-0.6-6.7,1.9-7.5,2c-0.9,0.8-2,1.2-3.3,1.6
						c0.4,0,0.8,0.5-0.4,0.9c-0.1-1.4-2.3,0.2-3.6-0.3c1.1,0.3-3.1,1.4-1.5,1.8c-1,0.3-0.3-0.4-1.1-0.4c-1,0.7-2.3,1.1-3.6,1.5
						c-1.3,0.4-2.8,0.9-4.1,1.6c0,0.2,0.6,0.2,0.1,0.7l-1.8-0.2c-0.5,0.3-0.1,1.1-1.3,1c0.2,0.1,0.5,0.2,0.2,0.4
						c-2.8,0.9-5.5,2.3-8.1,3.6c-2.6,1.4-5.4,2.7-8.4,3.4c0.9-0.1,0.4,0.2-0.1,0.5c0.4-0.1,0.2,0.4,0.4,0.6l-2.5,0.6
						c-0.1,0.8-2.3,1.3-2.3,2l0.6-0.5c-0.6,1.1,2.1,0.8,2.4,1.7c0.6-1.3,3.3-0.4,4.4-2.3c0.5,0-0.2,0.4,0.1,0.5
						c0.2-0.6,0.7-0.9,1.8-1.2l-0.1,0.1c2.7-1.4,4-1.7,7.2-2.9l-0.4-0.3c0.7-0.3,0.9-0.2,1.3-0.2c0.4-1-1.9,0.8-1.5-0.2
						c1.3,0.5,4.7-2.2,5.7-1.5c1-0.5-0.5-0.4,0.5-0.8l0.4,0.1L129,76c0.7-0.2,1.2-0.1,1.3,0.2c-0.2,0-0.4,0.3-0.6,0.4
						c1-0.1,2.4-1.2,2.8-1.2l-1.1,0.3c1.4-0.7,2.9-1.4,4.5-2.1c1.6-0.7,3.1-1.3,4.4-2.2l-0.3-0.1c1.9-1.2,1.8-0.5,4-1.6l-0.1,0.1
						c0.4-0.4,1-0.7,1.6-0.9c-0.5,0.5,1.3,0.1,0.6,0.6c2.1-1.3,1-0.8,2.2-2.1l0.5,0.2c0.4-0.5,0.4-0.7,1.5-1.2
						c-0.9,0.7,0.9,0.3,0,1.1c2.7-0.2,3.4-2.1,4.9-1.4c0.8-1.4-2.3,0.2-1.8-0.2c-0.6-0.1,0.7-1.1,1.5-1.2c0.8-0.3,1.8,0.8,3.8,0.1
						c-0.2,0.1-0.2,0.1-0.4,0.2c0.8,0,1.3-0.8,2.4-0.7c0.3-0.8,1.2-0.4,1.1-1.2l-1.8,0.8c1-0.5,1.7-1.7,3.5-1.9
						c-0.1,0.2-0.5,0.6-0.8,0.8c0.6,0.1,0.9-0.5,1.5-0.4c0.1,0.8-2.2,0.9-3.1,1.8c0.6,0.1,1.9-1.2,1.6-0.2c0.5-1.3,2-0.5,3.1-1.7
						l0.1,0.5c0.2-0.1,0.6-0.5,1-0.6l-0.5,0.8c0.9-0.9,2.3-0.2,3.2-0.8c-2.2,0.7-0.7-0.4-1.7-0.4c2.6-1.4,1.9,0.7,4.9-0.4
						c-0.4,0.2-1.6,0.2-1.1-0.2c0.6-0.1,1.4-0.1,1.9,0c2-0.7-0.4-0.4,0.3-0.9c0.9,0.3,0.9-0.5,1.8-0.9l0.1,0.5
						c2.4-0.3,0.3-1.1,2.5-1.3l-0.7,0.9l1-0.5l-0.1,0.6c1.1-0.7,1.5-0.7,2.7-0.9c-0.4-0.3-0.1-0.9,0.9-1.2c0.8,0.1-0.3,0.5,1.2,0.1
						c-0.3,0.4-0.5,0.8-1.3,0.6c0,0.2-0.3,0.4-0.3,0.6c0.8,0.1,1.9-0.4,2.4-0.6c-0.2,0-0.5,0.1-0.6,0l2-1.2c0.4,0.1,0.1,0.3-0.1,0.5
						c0.4-0.2,0.7-0.4,1.3-0.7c-0.1,0.4,0.1,0.8-0.8,1.2l1.9-0.9c0.2,0.1,1.1,0.2,0.9,0.4c1.2-0.1,2.6-1.4,4.1-1.5
						c0.1-0.1,0.2-0.2,0.5-0.3c1.4-0.2,2.8-0.1,4.3-1l1.1,0.5c1.3-0.5-1.5-0.6,0.6-1.3c1.5-0.6,0.7,0.5,1.3,0.5
						c0.7-0.5,1.9-1.5,3.4-1.2C203.9,52.9,203.5,52.9,203.1,53z M219.3,49.6c-0.3,0.2-0.9,0.6-1.1,0.3
						C218.4,49.3,218.7,49.5,219.3,49.6z M244,44.7c-0.2,0.2-0.6,0.2-1,0C243.3,44.6,243.6,44.6,244,44.7z M313.9,36.2
						C313.9,36.2,313.9,36.2,313.9,36.2C313.1,36.1,313.4,36.2,313.9,36.2z M315.4,36.4c0.1-0.1,0.1-0.1,0.1-0.2
						c-0.1,0.1-0.4,0.1-0.8,0.1C314.8,36.4,315,36.5,315.4,36.4z M157.2,60.9l0.3,0C157,61.3,157.1,61.1,157.2,60.9z"/>
					<path class="st3" d="M241.2,45.7c-0.1-0.1-0.1-0.2-0.2-0.2C241,45.5,241,45.6,241.2,45.7z"/>
					<path class="st3" d="M193.2,55.5L193.2,55.5c-0.1,0-0.1,0.1-0.1,0.1L193.2,55.5z"/>
					<path class="st3" d="M292.5,41.4c-0.3-0.1-0.5-0.1-0.6-0.2C291.9,41.3,292,41.4,292.5,41.4z"/>
					<path class="st3" d="M323.3,35.4l-1,0.2c0.5,0,0.6,0.1,0.9,0.1C323.2,35.6,323,35.4,323.3,35.4z"/>
					<path class="st3" d="M331.6,38.2c0.1-0.1,0.3,0,0.4-0.1l0-0.2C331.4,38,331,38.2,331.6,38.2z"/>
					<path class="st3" d="M324.2,37c0.1,0.4,0.7,0.3,1.4,0.2c0,0-0.1,0-0.1,0C325.6,36.6,324.9,36.8,324.2,37z"/>
					<path class="st3" d="M325.7,37.1c0.2,0,0.4,0,0.6,0C326.4,36.9,326.1,37.1,325.7,37.1z"/>
					<path class="st3" d="M317.3,36.1c0.3,0.1,0.2-0.5,0.4-0.4C318,35.2,315.6,36.4,317.3,36.1z"/>
					<polygon class="st3" points="324.8,38.3 324.5,37.8 324.2,38.2 					"/>
					<path class="st3" d="M319.5,38l1.1,0.1c0-0.1,0.1-0.1,0.3-0.2C320.2,38,319.5,37.9,319.5,38z"/>
					<path class="st3" d="M320.8,38c0.3,0,0.7,0,0.9-0.1C321.5,37.9,321.1,37.9,320.8,38z"/>
					<polygon class="st3" points="323.3,38.5 323,38.4 322.2,38.4 					"/>
					<path class="st3" d="M308,38.3l-1.2,0.2c-0.1,0.2,0.2,0.3,0.6,0.2C307.8,38.5,308.2,38.4,308,38.3z"/>
					<path class="st3" d="M311.6,39.5c-0.3-0.1-0.3-0.2-0.5-0.4l0,0.6L311.6,39.5z"/>
					<path class="st3" d="M308.2,39.8c-0.1,0.2-1.7,0.6-0.2,0.5C308.1,40.1,309.3,39.9,308.2,39.8z"/>
					<polygon class="st3" points="290.6,39.8 290.9,39.8 290.8,38.7 					"/>
					<path class="st3" d="M275.3,43.2c1.4,0.2,0.3-0.7,1.5-0.4c0.3-0.3-1-0.2-0.7-0.4C275.3,42.7,274.9,42.6,275.3,43.2z"/>
					<path class="st3" d="M276.2,42.4c0.1-0.1,0.3-0.1,0.4-0.2C276.3,42.3,276.2,42.3,276.2,42.4z"/>
					<polygon class="st3" points="107,82.3 106.1,82.5 106.8,82.5 					"/>
					<path class="st3" d="M105.8,83.7l-0.5-0.5l-0.2,0.8C105.3,83.9,105.6,83.7,105.8,83.7z"/>
					<path class="st3" d="M221.9,50.4l0-0.2c-0.2-0.1-0.4-0.1-0.8-0.1L221.9,50.4z"/>
					<polygon class="st3" points="210.1,52.1 210.3,52.1 209.8,51.6 					"/>
					<path class="st3" d="M200.4,54.9c0.4-0.1,0.9-0.3,1.3-0.3C200.8,54.8,200.1,54.2,200.4,54.9z"/>
				</g>
			</g>
		</g>
	</g>
</g>
</svg>
