<?xml version="1.0" encoding="utf-8"?>
<!-- Generator: Adobe Illustrator 23.0.1, SVG Export Plug-In . SVG Version: 6.00 Build 0)  -->
<svg version="1.1" id="Layer_1" xmlns="http://www.w3.org/2000/svg" xmlns:xlink="http://www.w3.org/1999/xlink" x="0px" y="0px"
	 viewBox="0 0 93.9 19.1" style="enable-background:new 0 0 93.9 19.1;" xml:space="preserve">
<style type="text/css">
	.st0{enable-background:new    ;}
	.st1{fill:#424242;}
</style>
<g class="st0">
	<path class="st1" d="M16.7,2.7v13.9h-1.2V7.9l0-4.1h-0.2c-0.2,0.6-0.6,2-1.3,4l-3.1,8.8H9.2L6.2,7.8c-0.5-1.3-0.9-2.6-1.3-4H4.6
		c0,0.3,0,0.5,0,0.8l0,3.3v8.7H3.5V2.7h2.1l3,8.7c0.5,1.4,0.9,2.8,1.4,4.1h0.2c0.7-2.1,1.2-3.5,1.4-4l3-8.7H16.7z"/>
	<path class="st1" d="M33.7,6.8c1.3,0,2.3,0.5,3,1.5c0.7,0.9,1,2,1,3.4c0,1.6-0.4,2.9-1.3,3.8c-0.7,0.8-1.6,1.2-2.8,1.2
		c-1.3,0-2.3-0.5-3-1.5c-0.7-0.9-1-2-1-3.4c0-1.6,0.4-2.9,1.3-3.8C31.6,7.2,32.5,6.8,33.7,6.8z M33.7,7.8c-0.9,0-1.7,0.4-2.2,1.2
		c-0.4,0.7-0.7,1.6-0.7,2.8c0,1.4,0.3,2.4,0.9,3.1c0.5,0.6,1.1,0.9,2,0.9c0.9,0,1.7-0.4,2.2-1.2c0.4-0.7,0.7-1.7,0.7-2.8
		c0-1.3-0.3-2.4-0.9-3.1C35.1,8.1,34.5,7.8,33.7,7.8z"/>
	<path class="st1" d="M57,7.1l-3.2,9.5h-1.5l-3.2-9.5h1.3l1.8,5.8c0.1,0.3,0.4,1.2,0.8,2.7h0.2c0.4-1.4,0.7-2.4,0.8-2.8l1.8-5.8H57z
		"/>
	<path class="st1" d="M70.6,3.3V5h-1.7V3.3H70.6z M70.3,7.1v9.5h-1.2V7.1H70.3z"/>
	<path class="st1" d="M91.1,11.9h-6.9c0,1.3,0.3,2.4,1,3.1c0.5,0.6,1.2,0.9,2.1,0.9c1.4,0,2.3-0.7,2.7-2l1.1,0.4
		c-0.7,1.7-1.9,2.6-3.8,2.6c-1.3,0-2.4-0.5-3.1-1.5c-0.7-0.9-1-2-1-3.5c0-1.6,0.4-2.9,1.3-3.8c0.7-0.8,1.7-1.2,2.8-1.2
		c1.3,0,2.3,0.5,3,1.5c0.7,0.9,1,2,1,3.3V11.9z M89.9,11c-0.1-1.1-0.4-1.9-1-2.5c-0.5-0.5-1.1-0.7-1.8-0.7c-0.9,0-1.5,0.3-2.1,1
		c-0.5,0.6-0.7,1.3-0.8,2.2H89.9z"/>
</g>
<g>
</g>
<g>
</g>
<g>
</g>
<g>
</g>
<g>
</g>
</svg>
